G04 #@! TF.GenerationSoftware,KiCad,Pcbnew,(5.1.9-0-10_14)*
G04 #@! TF.CreationDate,2021-03-12T15:28:23+00:00*
G04 #@! TF.ProjectId,mqttDisplay,6d717474-4469-4737-906c-61792e6b6963,rev?*
G04 #@! TF.SameCoordinates,Original*
G04 #@! TF.FileFunction,Soldermask,Bot*
G04 #@! TF.FilePolarity,Negative*
%FSLAX46Y46*%
G04 Gerber Fmt 4.6, Leading zero omitted, Abs format (unit mm)*
G04 Created by KiCad (PCBNEW (5.1.9-0-10_14)) date 2021-03-12 15:28:23*
%MOMM*%
%LPD*%
G01*
G04 APERTURE LIST*
%ADD10C,2.500000*%
%ADD11R,3.350000X3.350000*%
%ADD12R,0.650000X1.060000*%
%ADD13R,2.000000X0.900000*%
%ADD14R,0.900000X2.000000*%
%ADD15R,5.000000X5.000000*%
%ADD16R,1.000000X1.700000*%
%ADD17R,0.650000X0.400000*%
%ADD18R,1.500000X1.000000*%
%ADD19C,0.100000*%
%ADD20O,1.700000X1.700000*%
%ADD21R,1.700000X1.700000*%
%ADD22R,1.400000X1.000000*%
%ADD23R,1.400000X1.200000*%
G04 APERTURE END LIST*
D10*
X185400000Y-43900000D03*
X185400000Y-128300000D03*
X61000000Y-128300000D03*
X61000000Y-43900000D03*
G36*
G01*
X75128000Y-85128500D02*
X75128000Y-85003500D01*
G75*
G02*
X75190500Y-84941000I62500J0D01*
G01*
X75865500Y-84941000D01*
G75*
G02*
X75928000Y-85003500I0J-62500D01*
G01*
X75928000Y-85128500D01*
G75*
G02*
X75865500Y-85191000I-62500J0D01*
G01*
X75190500Y-85191000D01*
G75*
G02*
X75128000Y-85128500I0J62500D01*
G01*
G37*
G36*
G01*
X75128000Y-84628500D02*
X75128000Y-84503500D01*
G75*
G02*
X75190500Y-84441000I62500J0D01*
G01*
X75865500Y-84441000D01*
G75*
G02*
X75928000Y-84503500I0J-62500D01*
G01*
X75928000Y-84628500D01*
G75*
G02*
X75865500Y-84691000I-62500J0D01*
G01*
X75190500Y-84691000D01*
G75*
G02*
X75128000Y-84628500I0J62500D01*
G01*
G37*
G36*
G01*
X75128000Y-84128500D02*
X75128000Y-84003500D01*
G75*
G02*
X75190500Y-83941000I62500J0D01*
G01*
X75865500Y-83941000D01*
G75*
G02*
X75928000Y-84003500I0J-62500D01*
G01*
X75928000Y-84128500D01*
G75*
G02*
X75865500Y-84191000I-62500J0D01*
G01*
X75190500Y-84191000D01*
G75*
G02*
X75128000Y-84128500I0J62500D01*
G01*
G37*
G36*
G01*
X75128000Y-83628500D02*
X75128000Y-83503500D01*
G75*
G02*
X75190500Y-83441000I62500J0D01*
G01*
X75865500Y-83441000D01*
G75*
G02*
X75928000Y-83503500I0J-62500D01*
G01*
X75928000Y-83628500D01*
G75*
G02*
X75865500Y-83691000I-62500J0D01*
G01*
X75190500Y-83691000D01*
G75*
G02*
X75128000Y-83628500I0J62500D01*
G01*
G37*
G36*
G01*
X75128000Y-83128500D02*
X75128000Y-83003500D01*
G75*
G02*
X75190500Y-82941000I62500J0D01*
G01*
X75865500Y-82941000D01*
G75*
G02*
X75928000Y-83003500I0J-62500D01*
G01*
X75928000Y-83128500D01*
G75*
G02*
X75865500Y-83191000I-62500J0D01*
G01*
X75190500Y-83191000D01*
G75*
G02*
X75128000Y-83128500I0J62500D01*
G01*
G37*
G36*
G01*
X75128000Y-82628500D02*
X75128000Y-82503500D01*
G75*
G02*
X75190500Y-82441000I62500J0D01*
G01*
X75865500Y-82441000D01*
G75*
G02*
X75928000Y-82503500I0J-62500D01*
G01*
X75928000Y-82628500D01*
G75*
G02*
X75865500Y-82691000I-62500J0D01*
G01*
X75190500Y-82691000D01*
G75*
G02*
X75128000Y-82628500I0J62500D01*
G01*
G37*
G36*
G01*
X75128000Y-82128500D02*
X75128000Y-82003500D01*
G75*
G02*
X75190500Y-81941000I62500J0D01*
G01*
X75865500Y-81941000D01*
G75*
G02*
X75928000Y-82003500I0J-62500D01*
G01*
X75928000Y-82128500D01*
G75*
G02*
X75865500Y-82191000I-62500J0D01*
G01*
X75190500Y-82191000D01*
G75*
G02*
X75128000Y-82128500I0J62500D01*
G01*
G37*
G36*
G01*
X76353000Y-81453500D02*
X76353000Y-80778500D01*
G75*
G02*
X76415500Y-80716000I62500J0D01*
G01*
X76540500Y-80716000D01*
G75*
G02*
X76603000Y-80778500I0J-62500D01*
G01*
X76603000Y-81453500D01*
G75*
G02*
X76540500Y-81516000I-62500J0D01*
G01*
X76415500Y-81516000D01*
G75*
G02*
X76353000Y-81453500I0J62500D01*
G01*
G37*
G36*
G01*
X76853000Y-81453500D02*
X76853000Y-80778500D01*
G75*
G02*
X76915500Y-80716000I62500J0D01*
G01*
X77040500Y-80716000D01*
G75*
G02*
X77103000Y-80778500I0J-62500D01*
G01*
X77103000Y-81453500D01*
G75*
G02*
X77040500Y-81516000I-62500J0D01*
G01*
X76915500Y-81516000D01*
G75*
G02*
X76853000Y-81453500I0J62500D01*
G01*
G37*
G36*
G01*
X77353000Y-81453500D02*
X77353000Y-80778500D01*
G75*
G02*
X77415500Y-80716000I62500J0D01*
G01*
X77540500Y-80716000D01*
G75*
G02*
X77603000Y-80778500I0J-62500D01*
G01*
X77603000Y-81453500D01*
G75*
G02*
X77540500Y-81516000I-62500J0D01*
G01*
X77415500Y-81516000D01*
G75*
G02*
X77353000Y-81453500I0J62500D01*
G01*
G37*
G36*
G01*
X77853000Y-81453500D02*
X77853000Y-80778500D01*
G75*
G02*
X77915500Y-80716000I62500J0D01*
G01*
X78040500Y-80716000D01*
G75*
G02*
X78103000Y-80778500I0J-62500D01*
G01*
X78103000Y-81453500D01*
G75*
G02*
X78040500Y-81516000I-62500J0D01*
G01*
X77915500Y-81516000D01*
G75*
G02*
X77853000Y-81453500I0J62500D01*
G01*
G37*
G36*
G01*
X78353000Y-81453500D02*
X78353000Y-80778500D01*
G75*
G02*
X78415500Y-80716000I62500J0D01*
G01*
X78540500Y-80716000D01*
G75*
G02*
X78603000Y-80778500I0J-62500D01*
G01*
X78603000Y-81453500D01*
G75*
G02*
X78540500Y-81516000I-62500J0D01*
G01*
X78415500Y-81516000D01*
G75*
G02*
X78353000Y-81453500I0J62500D01*
G01*
G37*
G36*
G01*
X78853000Y-81453500D02*
X78853000Y-80778500D01*
G75*
G02*
X78915500Y-80716000I62500J0D01*
G01*
X79040500Y-80716000D01*
G75*
G02*
X79103000Y-80778500I0J-62500D01*
G01*
X79103000Y-81453500D01*
G75*
G02*
X79040500Y-81516000I-62500J0D01*
G01*
X78915500Y-81516000D01*
G75*
G02*
X78853000Y-81453500I0J62500D01*
G01*
G37*
G36*
G01*
X79353000Y-81453500D02*
X79353000Y-80778500D01*
G75*
G02*
X79415500Y-80716000I62500J0D01*
G01*
X79540500Y-80716000D01*
G75*
G02*
X79603000Y-80778500I0J-62500D01*
G01*
X79603000Y-81453500D01*
G75*
G02*
X79540500Y-81516000I-62500J0D01*
G01*
X79415500Y-81516000D01*
G75*
G02*
X79353000Y-81453500I0J62500D01*
G01*
G37*
G36*
G01*
X80028000Y-82128500D02*
X80028000Y-82003500D01*
G75*
G02*
X80090500Y-81941000I62500J0D01*
G01*
X80765500Y-81941000D01*
G75*
G02*
X80828000Y-82003500I0J-62500D01*
G01*
X80828000Y-82128500D01*
G75*
G02*
X80765500Y-82191000I-62500J0D01*
G01*
X80090500Y-82191000D01*
G75*
G02*
X80028000Y-82128500I0J62500D01*
G01*
G37*
G36*
G01*
X80028000Y-82628500D02*
X80028000Y-82503500D01*
G75*
G02*
X80090500Y-82441000I62500J0D01*
G01*
X80765500Y-82441000D01*
G75*
G02*
X80828000Y-82503500I0J-62500D01*
G01*
X80828000Y-82628500D01*
G75*
G02*
X80765500Y-82691000I-62500J0D01*
G01*
X80090500Y-82691000D01*
G75*
G02*
X80028000Y-82628500I0J62500D01*
G01*
G37*
G36*
G01*
X80028000Y-83128500D02*
X80028000Y-83003500D01*
G75*
G02*
X80090500Y-82941000I62500J0D01*
G01*
X80765500Y-82941000D01*
G75*
G02*
X80828000Y-83003500I0J-62500D01*
G01*
X80828000Y-83128500D01*
G75*
G02*
X80765500Y-83191000I-62500J0D01*
G01*
X80090500Y-83191000D01*
G75*
G02*
X80028000Y-83128500I0J62500D01*
G01*
G37*
G36*
G01*
X80028000Y-83628500D02*
X80028000Y-83503500D01*
G75*
G02*
X80090500Y-83441000I62500J0D01*
G01*
X80765500Y-83441000D01*
G75*
G02*
X80828000Y-83503500I0J-62500D01*
G01*
X80828000Y-83628500D01*
G75*
G02*
X80765500Y-83691000I-62500J0D01*
G01*
X80090500Y-83691000D01*
G75*
G02*
X80028000Y-83628500I0J62500D01*
G01*
G37*
G36*
G01*
X80028000Y-84128500D02*
X80028000Y-84003500D01*
G75*
G02*
X80090500Y-83941000I62500J0D01*
G01*
X80765500Y-83941000D01*
G75*
G02*
X80828000Y-84003500I0J-62500D01*
G01*
X80828000Y-84128500D01*
G75*
G02*
X80765500Y-84191000I-62500J0D01*
G01*
X80090500Y-84191000D01*
G75*
G02*
X80028000Y-84128500I0J62500D01*
G01*
G37*
G36*
G01*
X80028000Y-84628500D02*
X80028000Y-84503500D01*
G75*
G02*
X80090500Y-84441000I62500J0D01*
G01*
X80765500Y-84441000D01*
G75*
G02*
X80828000Y-84503500I0J-62500D01*
G01*
X80828000Y-84628500D01*
G75*
G02*
X80765500Y-84691000I-62500J0D01*
G01*
X80090500Y-84691000D01*
G75*
G02*
X80028000Y-84628500I0J62500D01*
G01*
G37*
G36*
G01*
X80028000Y-85128500D02*
X80028000Y-85003500D01*
G75*
G02*
X80090500Y-84941000I62500J0D01*
G01*
X80765500Y-84941000D01*
G75*
G02*
X80828000Y-85003500I0J-62500D01*
G01*
X80828000Y-85128500D01*
G75*
G02*
X80765500Y-85191000I-62500J0D01*
G01*
X80090500Y-85191000D01*
G75*
G02*
X80028000Y-85128500I0J62500D01*
G01*
G37*
G36*
G01*
X79353000Y-86353500D02*
X79353000Y-85678500D01*
G75*
G02*
X79415500Y-85616000I62500J0D01*
G01*
X79540500Y-85616000D01*
G75*
G02*
X79603000Y-85678500I0J-62500D01*
G01*
X79603000Y-86353500D01*
G75*
G02*
X79540500Y-86416000I-62500J0D01*
G01*
X79415500Y-86416000D01*
G75*
G02*
X79353000Y-86353500I0J62500D01*
G01*
G37*
G36*
G01*
X78853000Y-86353500D02*
X78853000Y-85678500D01*
G75*
G02*
X78915500Y-85616000I62500J0D01*
G01*
X79040500Y-85616000D01*
G75*
G02*
X79103000Y-85678500I0J-62500D01*
G01*
X79103000Y-86353500D01*
G75*
G02*
X79040500Y-86416000I-62500J0D01*
G01*
X78915500Y-86416000D01*
G75*
G02*
X78853000Y-86353500I0J62500D01*
G01*
G37*
G36*
G01*
X78353000Y-86353500D02*
X78353000Y-85678500D01*
G75*
G02*
X78415500Y-85616000I62500J0D01*
G01*
X78540500Y-85616000D01*
G75*
G02*
X78603000Y-85678500I0J-62500D01*
G01*
X78603000Y-86353500D01*
G75*
G02*
X78540500Y-86416000I-62500J0D01*
G01*
X78415500Y-86416000D01*
G75*
G02*
X78353000Y-86353500I0J62500D01*
G01*
G37*
G36*
G01*
X77853000Y-86353500D02*
X77853000Y-85678500D01*
G75*
G02*
X77915500Y-85616000I62500J0D01*
G01*
X78040500Y-85616000D01*
G75*
G02*
X78103000Y-85678500I0J-62500D01*
G01*
X78103000Y-86353500D01*
G75*
G02*
X78040500Y-86416000I-62500J0D01*
G01*
X77915500Y-86416000D01*
G75*
G02*
X77853000Y-86353500I0J62500D01*
G01*
G37*
G36*
G01*
X77353000Y-86353500D02*
X77353000Y-85678500D01*
G75*
G02*
X77415500Y-85616000I62500J0D01*
G01*
X77540500Y-85616000D01*
G75*
G02*
X77603000Y-85678500I0J-62500D01*
G01*
X77603000Y-86353500D01*
G75*
G02*
X77540500Y-86416000I-62500J0D01*
G01*
X77415500Y-86416000D01*
G75*
G02*
X77353000Y-86353500I0J62500D01*
G01*
G37*
G36*
G01*
X76853000Y-86353500D02*
X76853000Y-85678500D01*
G75*
G02*
X76915500Y-85616000I62500J0D01*
G01*
X77040500Y-85616000D01*
G75*
G02*
X77103000Y-85678500I0J-62500D01*
G01*
X77103000Y-86353500D01*
G75*
G02*
X77040500Y-86416000I-62500J0D01*
G01*
X76915500Y-86416000D01*
G75*
G02*
X76853000Y-86353500I0J62500D01*
G01*
G37*
G36*
G01*
X76353000Y-86353500D02*
X76353000Y-85678500D01*
G75*
G02*
X76415500Y-85616000I62500J0D01*
G01*
X76540500Y-85616000D01*
G75*
G02*
X76603000Y-85678500I0J-62500D01*
G01*
X76603000Y-86353500D01*
G75*
G02*
X76540500Y-86416000I-62500J0D01*
G01*
X76415500Y-86416000D01*
G75*
G02*
X76353000Y-86353500I0J62500D01*
G01*
G37*
D11*
X77978000Y-83566000D03*
D12*
X89850000Y-76116000D03*
X87950000Y-76116000D03*
X87950000Y-78316000D03*
X88900000Y-78316000D03*
X89850000Y-78316000D03*
D13*
X83464000Y-48634000D03*
X83464000Y-49904000D03*
X83464000Y-51174000D03*
X83464000Y-52444000D03*
X83464000Y-53714000D03*
X83464000Y-54984000D03*
X83464000Y-56254000D03*
X83464000Y-57524000D03*
X83464000Y-58794000D03*
X83464000Y-60064000D03*
X83464000Y-61334000D03*
X83464000Y-62604000D03*
X83464000Y-63874000D03*
X83464000Y-65144000D03*
D14*
X86249000Y-66144000D03*
X87519000Y-66144000D03*
X88789000Y-66144000D03*
X90059000Y-66144000D03*
X91329000Y-66144000D03*
X92599000Y-66144000D03*
X93869000Y-66144000D03*
X95139000Y-66144000D03*
X96409000Y-66144000D03*
X97679000Y-66144000D03*
D13*
X100464000Y-65144000D03*
X100464000Y-63874000D03*
X100464000Y-62604000D03*
X100464000Y-61334000D03*
X100464000Y-60064000D03*
X100464000Y-58794000D03*
X100464000Y-57524000D03*
X100464000Y-56254000D03*
X100464000Y-54984000D03*
X100464000Y-53714000D03*
X100464000Y-52444000D03*
X100464000Y-51174000D03*
X100464000Y-49904000D03*
X100464000Y-48634000D03*
D15*
X92964000Y-56134000D03*
D16*
X113660000Y-61062000D03*
X113660000Y-54762000D03*
X109860000Y-61062000D03*
X109860000Y-54762000D03*
G36*
G01*
X76285000Y-77772500D02*
X76285000Y-78247500D01*
G75*
G02*
X76047500Y-78485000I-237500J0D01*
G01*
X75547500Y-78485000D01*
G75*
G02*
X75310000Y-78247500I0J237500D01*
G01*
X75310000Y-77772500D01*
G75*
G02*
X75547500Y-77535000I237500J0D01*
G01*
X76047500Y-77535000D01*
G75*
G02*
X76285000Y-77772500I0J-237500D01*
G01*
G37*
G36*
G01*
X78110000Y-77772500D02*
X78110000Y-78247500D01*
G75*
G02*
X77872500Y-78485000I-237500J0D01*
G01*
X77372500Y-78485000D01*
G75*
G02*
X77135000Y-78247500I0J237500D01*
G01*
X77135000Y-77772500D01*
G75*
G02*
X77372500Y-77535000I237500J0D01*
G01*
X77872500Y-77535000D01*
G75*
G02*
X78110000Y-77772500I0J-237500D01*
G01*
G37*
G36*
G01*
X76283000Y-75708500D02*
X76283000Y-76183500D01*
G75*
G02*
X76045500Y-76421000I-237500J0D01*
G01*
X75545500Y-76421000D01*
G75*
G02*
X75308000Y-76183500I0J237500D01*
G01*
X75308000Y-75708500D01*
G75*
G02*
X75545500Y-75471000I237500J0D01*
G01*
X76045500Y-75471000D01*
G75*
G02*
X76283000Y-75708500I0J-237500D01*
G01*
G37*
G36*
G01*
X78108000Y-75708500D02*
X78108000Y-76183500D01*
G75*
G02*
X77870500Y-76421000I-237500J0D01*
G01*
X77370500Y-76421000D01*
G75*
G02*
X77133000Y-76183500I0J237500D01*
G01*
X77133000Y-75708500D01*
G75*
G02*
X77370500Y-75471000I237500J0D01*
G01*
X77870500Y-75471000D01*
G75*
G02*
X78108000Y-75708500I0J-237500D01*
G01*
G37*
G36*
G01*
X73489000Y-42180500D02*
X73489000Y-42655500D01*
G75*
G02*
X73251500Y-42893000I-237500J0D01*
G01*
X72751500Y-42893000D01*
G75*
G02*
X72514000Y-42655500I0J237500D01*
G01*
X72514000Y-42180500D01*
G75*
G02*
X72751500Y-41943000I237500J0D01*
G01*
X73251500Y-41943000D01*
G75*
G02*
X73489000Y-42180500I0J-237500D01*
G01*
G37*
G36*
G01*
X75314000Y-42180500D02*
X75314000Y-42655500D01*
G75*
G02*
X75076500Y-42893000I-237500J0D01*
G01*
X74576500Y-42893000D01*
G75*
G02*
X74339000Y-42655500I0J237500D01*
G01*
X74339000Y-42180500D01*
G75*
G02*
X74576500Y-41943000I237500J0D01*
G01*
X75076500Y-41943000D01*
G75*
G02*
X75314000Y-42180500I0J-237500D01*
G01*
G37*
G36*
G01*
X73489000Y-45736500D02*
X73489000Y-46211500D01*
G75*
G02*
X73251500Y-46449000I-237500J0D01*
G01*
X72751500Y-46449000D01*
G75*
G02*
X72514000Y-46211500I0J237500D01*
G01*
X72514000Y-45736500D01*
G75*
G02*
X72751500Y-45499000I237500J0D01*
G01*
X73251500Y-45499000D01*
G75*
G02*
X73489000Y-45736500I0J-237500D01*
G01*
G37*
G36*
G01*
X75314000Y-45736500D02*
X75314000Y-46211500D01*
G75*
G02*
X75076500Y-46449000I-237500J0D01*
G01*
X74576500Y-46449000D01*
G75*
G02*
X74339000Y-46211500I0J237500D01*
G01*
X74339000Y-45736500D01*
G75*
G02*
X74576500Y-45499000I237500J0D01*
G01*
X75076500Y-45499000D01*
G75*
G02*
X75314000Y-45736500I0J-237500D01*
G01*
G37*
G36*
G01*
X73489000Y-43958500D02*
X73489000Y-44433500D01*
G75*
G02*
X73251500Y-44671000I-237500J0D01*
G01*
X72751500Y-44671000D01*
G75*
G02*
X72514000Y-44433500I0J237500D01*
G01*
X72514000Y-43958500D01*
G75*
G02*
X72751500Y-43721000I237500J0D01*
G01*
X73251500Y-43721000D01*
G75*
G02*
X73489000Y-43958500I0J-237500D01*
G01*
G37*
G36*
G01*
X75314000Y-43958500D02*
X75314000Y-44433500D01*
G75*
G02*
X75076500Y-44671000I-237500J0D01*
G01*
X74576500Y-44671000D01*
G75*
G02*
X74339000Y-44433500I0J237500D01*
G01*
X74339000Y-43958500D01*
G75*
G02*
X74576500Y-43721000I237500J0D01*
G01*
X75076500Y-43721000D01*
G75*
G02*
X75314000Y-43958500I0J-237500D01*
G01*
G37*
G36*
G01*
X87646500Y-81451000D02*
X88121500Y-81451000D01*
G75*
G02*
X88359000Y-81688500I0J-237500D01*
G01*
X88359000Y-82188500D01*
G75*
G02*
X88121500Y-82426000I-237500J0D01*
G01*
X87646500Y-82426000D01*
G75*
G02*
X87409000Y-82188500I0J237500D01*
G01*
X87409000Y-81688500D01*
G75*
G02*
X87646500Y-81451000I237500J0D01*
G01*
G37*
G36*
G01*
X87646500Y-79626000D02*
X88121500Y-79626000D01*
G75*
G02*
X88359000Y-79863500I0J-237500D01*
G01*
X88359000Y-80363500D01*
G75*
G02*
X88121500Y-80601000I-237500J0D01*
G01*
X87646500Y-80601000D01*
G75*
G02*
X87409000Y-80363500I0J237500D01*
G01*
X87409000Y-79863500D01*
G75*
G02*
X87646500Y-79626000I237500J0D01*
G01*
G37*
G36*
G01*
X60872500Y-78065000D02*
X61347500Y-78065000D01*
G75*
G02*
X61585000Y-78302500I0J-237500D01*
G01*
X61585000Y-78802500D01*
G75*
G02*
X61347500Y-79040000I-237500J0D01*
G01*
X60872500Y-79040000D01*
G75*
G02*
X60635000Y-78802500I0J237500D01*
G01*
X60635000Y-78302500D01*
G75*
G02*
X60872500Y-78065000I237500J0D01*
G01*
G37*
G36*
G01*
X60872500Y-76240000D02*
X61347500Y-76240000D01*
G75*
G02*
X61585000Y-76477500I0J-237500D01*
G01*
X61585000Y-76977500D01*
G75*
G02*
X61347500Y-77215000I-237500J0D01*
G01*
X60872500Y-77215000D01*
G75*
G02*
X60635000Y-76977500I0J237500D01*
G01*
X60635000Y-76477500D01*
G75*
G02*
X60872500Y-76240000I237500J0D01*
G01*
G37*
G36*
G01*
X79264500Y-77236500D02*
X79739500Y-77236500D01*
G75*
G02*
X79977000Y-77474000I0J-237500D01*
G01*
X79977000Y-77974000D01*
G75*
G02*
X79739500Y-78211500I-237500J0D01*
G01*
X79264500Y-78211500D01*
G75*
G02*
X79027000Y-77974000I0J237500D01*
G01*
X79027000Y-77474000D01*
G75*
G02*
X79264500Y-77236500I237500J0D01*
G01*
G37*
G36*
G01*
X79264500Y-75411500D02*
X79739500Y-75411500D01*
G75*
G02*
X79977000Y-75649000I0J-237500D01*
G01*
X79977000Y-76149000D01*
G75*
G02*
X79739500Y-76386500I-237500J0D01*
G01*
X79264500Y-76386500D01*
G75*
G02*
X79027000Y-76149000I0J237500D01*
G01*
X79027000Y-75649000D01*
G75*
G02*
X79264500Y-75411500I237500J0D01*
G01*
G37*
G36*
G01*
X61877500Y-96375000D02*
X61402500Y-96375000D01*
G75*
G02*
X61165000Y-96137500I0J237500D01*
G01*
X61165000Y-95637500D01*
G75*
G02*
X61402500Y-95400000I237500J0D01*
G01*
X61877500Y-95400000D01*
G75*
G02*
X62115000Y-95637500I0J-237500D01*
G01*
X62115000Y-96137500D01*
G75*
G02*
X61877500Y-96375000I-237500J0D01*
G01*
G37*
G36*
G01*
X61877500Y-98200000D02*
X61402500Y-98200000D01*
G75*
G02*
X61165000Y-97962500I0J237500D01*
G01*
X61165000Y-97462500D01*
G75*
G02*
X61402500Y-97225000I237500J0D01*
G01*
X61877500Y-97225000D01*
G75*
G02*
X62115000Y-97462500I0J-237500D01*
G01*
X62115000Y-97962500D01*
G75*
G02*
X61877500Y-98200000I-237500J0D01*
G01*
G37*
G36*
G01*
X109744500Y-51225000D02*
X110219500Y-51225000D01*
G75*
G02*
X110457000Y-51462500I0J-237500D01*
G01*
X110457000Y-51962500D01*
G75*
G02*
X110219500Y-52200000I-237500J0D01*
G01*
X109744500Y-52200000D01*
G75*
G02*
X109507000Y-51962500I0J237500D01*
G01*
X109507000Y-51462500D01*
G75*
G02*
X109744500Y-51225000I237500J0D01*
G01*
G37*
G36*
G01*
X109744500Y-49400000D02*
X110219500Y-49400000D01*
G75*
G02*
X110457000Y-49637500I0J-237500D01*
G01*
X110457000Y-50137500D01*
G75*
G02*
X110219500Y-50375000I-237500J0D01*
G01*
X109744500Y-50375000D01*
G75*
G02*
X109507000Y-50137500I0J237500D01*
G01*
X109507000Y-49637500D01*
G75*
G02*
X109744500Y-49400000I237500J0D01*
G01*
G37*
G36*
G01*
X113062500Y-64925000D02*
X113537500Y-64925000D01*
G75*
G02*
X113775000Y-65162500I0J-237500D01*
G01*
X113775000Y-65662500D01*
G75*
G02*
X113537500Y-65900000I-237500J0D01*
G01*
X113062500Y-65900000D01*
G75*
G02*
X112825000Y-65662500I0J237500D01*
G01*
X112825000Y-65162500D01*
G75*
G02*
X113062500Y-64925000I237500J0D01*
G01*
G37*
G36*
G01*
X113062500Y-63100000D02*
X113537500Y-63100000D01*
G75*
G02*
X113775000Y-63337500I0J-237500D01*
G01*
X113775000Y-63837500D01*
G75*
G02*
X113537500Y-64075000I-237500J0D01*
G01*
X113062500Y-64075000D01*
G75*
G02*
X112825000Y-63837500I0J237500D01*
G01*
X112825000Y-63337500D01*
G75*
G02*
X113062500Y-63100000I237500J0D01*
G01*
G37*
G36*
G01*
X111843000Y-70628500D02*
X111843000Y-71103500D01*
G75*
G02*
X111605500Y-71341000I-237500J0D01*
G01*
X111105500Y-71341000D01*
G75*
G02*
X110868000Y-71103500I0J237500D01*
G01*
X110868000Y-70628500D01*
G75*
G02*
X111105500Y-70391000I237500J0D01*
G01*
X111605500Y-70391000D01*
G75*
G02*
X111843000Y-70628500I0J-237500D01*
G01*
G37*
G36*
G01*
X113668000Y-70628500D02*
X113668000Y-71103500D01*
G75*
G02*
X113430500Y-71341000I-237500J0D01*
G01*
X112930500Y-71341000D01*
G75*
G02*
X112693000Y-71103500I0J237500D01*
G01*
X112693000Y-70628500D01*
G75*
G02*
X112930500Y-70391000I237500J0D01*
G01*
X113430500Y-70391000D01*
G75*
G02*
X113668000Y-70628500I0J-237500D01*
G01*
G37*
G36*
G01*
X68120001Y-49005500D02*
X68120001Y-48530500D01*
G75*
G02*
X68357501Y-48293000I237500J0D01*
G01*
X68857501Y-48293000D01*
G75*
G02*
X69095001Y-48530500I0J-237500D01*
G01*
X69095001Y-49005500D01*
G75*
G02*
X68857501Y-49243000I-237500J0D01*
G01*
X68357501Y-49243000D01*
G75*
G02*
X68120001Y-49005500I0J237500D01*
G01*
G37*
G36*
G01*
X66295001Y-49005500D02*
X66295001Y-48530500D01*
G75*
G02*
X66532501Y-48293000I237500J0D01*
G01*
X67032501Y-48293000D01*
G75*
G02*
X67270001Y-48530500I0J-237500D01*
G01*
X67270001Y-49005500D01*
G75*
G02*
X67032501Y-49243000I-237500J0D01*
G01*
X66532501Y-49243000D01*
G75*
G02*
X66295001Y-49005500I0J237500D01*
G01*
G37*
G36*
G01*
X68120001Y-51037500D02*
X68120001Y-50562500D01*
G75*
G02*
X68357501Y-50325000I237500J0D01*
G01*
X68857501Y-50325000D01*
G75*
G02*
X69095001Y-50562500I0J-237500D01*
G01*
X69095001Y-51037500D01*
G75*
G02*
X68857501Y-51275000I-237500J0D01*
G01*
X68357501Y-51275000D01*
G75*
G02*
X68120001Y-51037500I0J237500D01*
G01*
G37*
G36*
G01*
X66295001Y-51037500D02*
X66295001Y-50562500D01*
G75*
G02*
X66532501Y-50325000I237500J0D01*
G01*
X67032501Y-50325000D01*
G75*
G02*
X67270001Y-50562500I0J-237500D01*
G01*
X67270001Y-51037500D01*
G75*
G02*
X67032501Y-51275000I-237500J0D01*
G01*
X66532501Y-51275000D01*
G75*
G02*
X66295001Y-51037500I0J237500D01*
G01*
G37*
D17*
X111318000Y-67422000D03*
X111318000Y-68722000D03*
X113218000Y-68072000D03*
X111318000Y-68072000D03*
X113218000Y-68722000D03*
X113218000Y-67422000D03*
D18*
X121412000Y-44196000D03*
D19*
G36*
X120662602Y-42896000D02*
G01*
X120662602Y-42871466D01*
X120667412Y-42822635D01*
X120676984Y-42774510D01*
X120691228Y-42727555D01*
X120710005Y-42682222D01*
X120733136Y-42638949D01*
X120760396Y-42598150D01*
X120791524Y-42560221D01*
X120826221Y-42525524D01*
X120864150Y-42494396D01*
X120904949Y-42467136D01*
X120948222Y-42444005D01*
X120993555Y-42425228D01*
X121040510Y-42410984D01*
X121088635Y-42401412D01*
X121137466Y-42396602D01*
X121162000Y-42396602D01*
X121162000Y-42396000D01*
X121662000Y-42396000D01*
X121662000Y-42396602D01*
X121686534Y-42396602D01*
X121735365Y-42401412D01*
X121783490Y-42410984D01*
X121830445Y-42425228D01*
X121875778Y-42444005D01*
X121919051Y-42467136D01*
X121959850Y-42494396D01*
X121997779Y-42525524D01*
X122032476Y-42560221D01*
X122063604Y-42598150D01*
X122090864Y-42638949D01*
X122113995Y-42682222D01*
X122132772Y-42727555D01*
X122147016Y-42774510D01*
X122156588Y-42822635D01*
X122161398Y-42871466D01*
X122161398Y-42896000D01*
X122162000Y-42896000D01*
X122162000Y-43446000D01*
X120662000Y-43446000D01*
X120662000Y-42896000D01*
X120662602Y-42896000D01*
G37*
G36*
X122162000Y-44946000D02*
G01*
X122162000Y-45496000D01*
X122161398Y-45496000D01*
X122161398Y-45520534D01*
X122156588Y-45569365D01*
X122147016Y-45617490D01*
X122132772Y-45664445D01*
X122113995Y-45709778D01*
X122090864Y-45753051D01*
X122063604Y-45793850D01*
X122032476Y-45831779D01*
X121997779Y-45866476D01*
X121959850Y-45897604D01*
X121919051Y-45924864D01*
X121875778Y-45947995D01*
X121830445Y-45966772D01*
X121783490Y-45981016D01*
X121735365Y-45990588D01*
X121686534Y-45995398D01*
X121662000Y-45995398D01*
X121662000Y-45996000D01*
X121162000Y-45996000D01*
X121162000Y-45995398D01*
X121137466Y-45995398D01*
X121088635Y-45990588D01*
X121040510Y-45981016D01*
X120993555Y-45966772D01*
X120948222Y-45947995D01*
X120904949Y-45924864D01*
X120864150Y-45897604D01*
X120826221Y-45866476D01*
X120791524Y-45831779D01*
X120760396Y-45793850D01*
X120733136Y-45753051D01*
X120710005Y-45709778D01*
X120691228Y-45664445D01*
X120676984Y-45617490D01*
X120667412Y-45569365D01*
X120662602Y-45520534D01*
X120662602Y-45496000D01*
X120662000Y-45496000D01*
X120662000Y-44946000D01*
X122162000Y-44946000D01*
G37*
D20*
X61722000Y-67310000D03*
X61722000Y-64770000D03*
X61722000Y-62230000D03*
X61722000Y-59690000D03*
X61722000Y-57150000D03*
X61722000Y-54610000D03*
X61722000Y-52070000D03*
D21*
X61722000Y-49530000D03*
G36*
G01*
X61739000Y-88413500D02*
X62089000Y-88413500D01*
G75*
G02*
X62264000Y-88588500I0J-175000D01*
G01*
X62264000Y-88938500D01*
G75*
G02*
X62089000Y-89113500I-175000J0D01*
G01*
X61739000Y-89113500D01*
G75*
G02*
X61564000Y-88938500I0J175000D01*
G01*
X61564000Y-88588500D01*
G75*
G02*
X61739000Y-88413500I175000J0D01*
G01*
G37*
G36*
G01*
X61739000Y-86563500D02*
X62089000Y-86563500D01*
G75*
G02*
X62264000Y-86738500I0J-175000D01*
G01*
X62264000Y-87088500D01*
G75*
G02*
X62089000Y-87263500I-175000J0D01*
G01*
X61739000Y-87263500D01*
G75*
G02*
X61564000Y-87088500I0J175000D01*
G01*
X61564000Y-86738500D01*
G75*
G02*
X61739000Y-86563500I175000J0D01*
G01*
G37*
G36*
G01*
X61739000Y-89338500D02*
X62089000Y-89338500D01*
G75*
G02*
X62264000Y-89513500I0J-175000D01*
G01*
X62264000Y-89863500D01*
G75*
G02*
X62089000Y-90038500I-175000J0D01*
G01*
X61739000Y-90038500D01*
G75*
G02*
X61564000Y-89863500I0J175000D01*
G01*
X61564000Y-89513500D01*
G75*
G02*
X61739000Y-89338500I175000J0D01*
G01*
G37*
G36*
G01*
X61739000Y-84713500D02*
X62089000Y-84713500D01*
G75*
G02*
X62264000Y-84888500I0J-175000D01*
G01*
X62264000Y-85238500D01*
G75*
G02*
X62089000Y-85413500I-175000J0D01*
G01*
X61739000Y-85413500D01*
G75*
G02*
X61564000Y-85238500I0J175000D01*
G01*
X61564000Y-84888500D01*
G75*
G02*
X61739000Y-84713500I175000J0D01*
G01*
G37*
G36*
G01*
X61739000Y-90263500D02*
X62089000Y-90263500D01*
G75*
G02*
X62264000Y-90438500I0J-175000D01*
G01*
X62264000Y-90788500D01*
G75*
G02*
X62089000Y-90963500I-175000J0D01*
G01*
X61739000Y-90963500D01*
G75*
G02*
X61564000Y-90788500I0J175000D01*
G01*
X61564000Y-90438500D01*
G75*
G02*
X61739000Y-90263500I175000J0D01*
G01*
G37*
G36*
G01*
X61739000Y-87488500D02*
X62089000Y-87488500D01*
G75*
G02*
X62264000Y-87663500I0J-175000D01*
G01*
X62264000Y-88013500D01*
G75*
G02*
X62089000Y-88188500I-175000J0D01*
G01*
X61739000Y-88188500D01*
G75*
G02*
X61564000Y-88013500I0J175000D01*
G01*
X61564000Y-87663500D01*
G75*
G02*
X61739000Y-87488500I175000J0D01*
G01*
G37*
G36*
G01*
X61739000Y-83788500D02*
X62089000Y-83788500D01*
G75*
G02*
X62264000Y-83963500I0J-175000D01*
G01*
X62264000Y-84313500D01*
G75*
G02*
X62089000Y-84488500I-175000J0D01*
G01*
X61739000Y-84488500D01*
G75*
G02*
X61564000Y-84313500I0J175000D01*
G01*
X61564000Y-83963500D01*
G75*
G02*
X61739000Y-83788500I175000J0D01*
G01*
G37*
G36*
G01*
X60339000Y-90263500D02*
X60689000Y-90263500D01*
G75*
G02*
X60864000Y-90438500I0J-175000D01*
G01*
X60864000Y-90788500D01*
G75*
G02*
X60689000Y-90963500I-175000J0D01*
G01*
X60339000Y-90963500D01*
G75*
G02*
X60164000Y-90788500I0J175000D01*
G01*
X60164000Y-90438500D01*
G75*
G02*
X60339000Y-90263500I175000J0D01*
G01*
G37*
G36*
G01*
X60339000Y-89338500D02*
X60689000Y-89338500D01*
G75*
G02*
X60864000Y-89513500I0J-175000D01*
G01*
X60864000Y-89863500D01*
G75*
G02*
X60689000Y-90038500I-175000J0D01*
G01*
X60339000Y-90038500D01*
G75*
G02*
X60164000Y-89863500I0J175000D01*
G01*
X60164000Y-89513500D01*
G75*
G02*
X60339000Y-89338500I175000J0D01*
G01*
G37*
G36*
G01*
X60339000Y-83788500D02*
X60689000Y-83788500D01*
G75*
G02*
X60864000Y-83963500I0J-175000D01*
G01*
X60864000Y-84313500D01*
G75*
G02*
X60689000Y-84488500I-175000J0D01*
G01*
X60339000Y-84488500D01*
G75*
G02*
X60164000Y-84313500I0J175000D01*
G01*
X60164000Y-83963500D01*
G75*
G02*
X60339000Y-83788500I175000J0D01*
G01*
G37*
G36*
G01*
X60339000Y-84713500D02*
X60689000Y-84713500D01*
G75*
G02*
X60864000Y-84888500I0J-175000D01*
G01*
X60864000Y-85238500D01*
G75*
G02*
X60689000Y-85413500I-175000J0D01*
G01*
X60339000Y-85413500D01*
G75*
G02*
X60164000Y-85238500I0J175000D01*
G01*
X60164000Y-84888500D01*
G75*
G02*
X60339000Y-84713500I175000J0D01*
G01*
G37*
G36*
G01*
X60339000Y-85638500D02*
X60689000Y-85638500D01*
G75*
G02*
X60864000Y-85813500I0J-175000D01*
G01*
X60864000Y-86163500D01*
G75*
G02*
X60689000Y-86338500I-175000J0D01*
G01*
X60339000Y-86338500D01*
G75*
G02*
X60164000Y-86163500I0J175000D01*
G01*
X60164000Y-85813500D01*
G75*
G02*
X60339000Y-85638500I175000J0D01*
G01*
G37*
G36*
G01*
X60339000Y-87488500D02*
X60689000Y-87488500D01*
G75*
G02*
X60864000Y-87663500I0J-175000D01*
G01*
X60864000Y-88013500D01*
G75*
G02*
X60689000Y-88188500I-175000J0D01*
G01*
X60339000Y-88188500D01*
G75*
G02*
X60164000Y-88013500I0J175000D01*
G01*
X60164000Y-87663500D01*
G75*
G02*
X60339000Y-87488500I175000J0D01*
G01*
G37*
G36*
G01*
X60339000Y-86563500D02*
X60689000Y-86563500D01*
G75*
G02*
X60864000Y-86738500I0J-175000D01*
G01*
X60864000Y-87088500D01*
G75*
G02*
X60689000Y-87263500I-175000J0D01*
G01*
X60339000Y-87263500D01*
G75*
G02*
X60164000Y-87088500I0J175000D01*
G01*
X60164000Y-86738500D01*
G75*
G02*
X60339000Y-86563500I175000J0D01*
G01*
G37*
G36*
G01*
X59039000Y-88376000D02*
X59539000Y-88376000D01*
G75*
G02*
X59789000Y-88626000I0J-250000D01*
G01*
X59789000Y-90126000D01*
G75*
G02*
X59539000Y-90376000I-250000J0D01*
G01*
X59039000Y-90376000D01*
G75*
G02*
X58789000Y-90126000I0J250000D01*
G01*
X58789000Y-88626000D01*
G75*
G02*
X59039000Y-88376000I250000J0D01*
G01*
G37*
G36*
G01*
X59039000Y-84376000D02*
X59539000Y-84376000D01*
G75*
G02*
X59789000Y-84626000I0J-250000D01*
G01*
X59789000Y-86126000D01*
G75*
G02*
X59539000Y-86376000I-250000J0D01*
G01*
X59039000Y-86376000D01*
G75*
G02*
X58789000Y-86126000I0J250000D01*
G01*
X58789000Y-84626000D01*
G75*
G02*
X59039000Y-84376000I250000J0D01*
G01*
G37*
G36*
G01*
X62889000Y-88376000D02*
X63389000Y-88376000D01*
G75*
G02*
X63639000Y-88626000I0J-250000D01*
G01*
X63639000Y-90126000D01*
G75*
G02*
X63389000Y-90376000I-250000J0D01*
G01*
X62889000Y-90376000D01*
G75*
G02*
X62639000Y-90126000I0J250000D01*
G01*
X62639000Y-88626000D01*
G75*
G02*
X62889000Y-88376000I250000J0D01*
G01*
G37*
G36*
G01*
X62889000Y-84376000D02*
X63389000Y-84376000D01*
G75*
G02*
X63639000Y-84626000I0J-250000D01*
G01*
X63639000Y-86126000D01*
G75*
G02*
X63389000Y-86376000I-250000J0D01*
G01*
X62889000Y-86376000D01*
G75*
G02*
X62639000Y-86126000I0J250000D01*
G01*
X62639000Y-84626000D01*
G75*
G02*
X62889000Y-84376000I250000J0D01*
G01*
G37*
D22*
X67630000Y-85950000D03*
X67630000Y-87850000D03*
X69830000Y-87850000D03*
D23*
X69830000Y-86130000D03*
G36*
G01*
X68143000Y-46973500D02*
X68143000Y-46498500D01*
G75*
G02*
X68380500Y-46261000I237500J0D01*
G01*
X68980500Y-46261000D01*
G75*
G02*
X69218000Y-46498500I0J-237500D01*
G01*
X69218000Y-46973500D01*
G75*
G02*
X68980500Y-47211000I-237500J0D01*
G01*
X68380500Y-47211000D01*
G75*
G02*
X68143000Y-46973500I0J237500D01*
G01*
G37*
G36*
G01*
X66418000Y-46973500D02*
X66418000Y-46498500D01*
G75*
G02*
X66655500Y-46261000I237500J0D01*
G01*
X67255500Y-46261000D01*
G75*
G02*
X67493000Y-46498500I0J-237500D01*
G01*
X67493000Y-46973500D01*
G75*
G02*
X67255500Y-47211000I-237500J0D01*
G01*
X66655500Y-47211000D01*
G75*
G02*
X66418000Y-46973500I0J237500D01*
G01*
G37*
G36*
G01*
X107679500Y-43871000D02*
X107204500Y-43871000D01*
G75*
G02*
X106967000Y-43633500I0J237500D01*
G01*
X106967000Y-43033500D01*
G75*
G02*
X107204500Y-42796000I237500J0D01*
G01*
X107679500Y-42796000D01*
G75*
G02*
X107917000Y-43033500I0J-237500D01*
G01*
X107917000Y-43633500D01*
G75*
G02*
X107679500Y-43871000I-237500J0D01*
G01*
G37*
G36*
G01*
X107679500Y-45596000D02*
X107204500Y-45596000D01*
G75*
G02*
X106967000Y-45358500I0J237500D01*
G01*
X106967000Y-44758500D01*
G75*
G02*
X107204500Y-44521000I237500J0D01*
G01*
X107679500Y-44521000D01*
G75*
G02*
X107917000Y-44758500I0J-237500D01*
G01*
X107917000Y-45358500D01*
G75*
G02*
X107679500Y-45596000I-237500J0D01*
G01*
G37*
G36*
G01*
X109457500Y-43871000D02*
X108982500Y-43871000D01*
G75*
G02*
X108745000Y-43633500I0J237500D01*
G01*
X108745000Y-43033500D01*
G75*
G02*
X108982500Y-42796000I237500J0D01*
G01*
X109457500Y-42796000D01*
G75*
G02*
X109695000Y-43033500I0J-237500D01*
G01*
X109695000Y-43633500D01*
G75*
G02*
X109457500Y-43871000I-237500J0D01*
G01*
G37*
G36*
G01*
X109457500Y-45596000D02*
X108982500Y-45596000D01*
G75*
G02*
X108745000Y-45358500I0J237500D01*
G01*
X108745000Y-44758500D01*
G75*
G02*
X108982500Y-44521000I237500J0D01*
G01*
X109457500Y-44521000D01*
G75*
G02*
X109695000Y-44758500I0J-237500D01*
G01*
X109695000Y-45358500D01*
G75*
G02*
X109457500Y-45596000I-237500J0D01*
G01*
G37*
G36*
G01*
X93289000Y-74659500D02*
X93289000Y-74184500D01*
G75*
G02*
X93526500Y-73947000I237500J0D01*
G01*
X94126500Y-73947000D01*
G75*
G02*
X94364000Y-74184500I0J-237500D01*
G01*
X94364000Y-74659500D01*
G75*
G02*
X94126500Y-74897000I-237500J0D01*
G01*
X93526500Y-74897000D01*
G75*
G02*
X93289000Y-74659500I0J237500D01*
G01*
G37*
G36*
G01*
X91564000Y-74659500D02*
X91564000Y-74184500D01*
G75*
G02*
X91801500Y-73947000I237500J0D01*
G01*
X92401500Y-73947000D01*
G75*
G02*
X92639000Y-74184500I0J-237500D01*
G01*
X92639000Y-74659500D01*
G75*
G02*
X92401500Y-74897000I-237500J0D01*
G01*
X91801500Y-74897000D01*
G75*
G02*
X91564000Y-74659500I0J237500D01*
G01*
G37*
G36*
G01*
X72965000Y-82467500D02*
X72965000Y-81992500D01*
G75*
G02*
X73202500Y-81755000I237500J0D01*
G01*
X73802500Y-81755000D01*
G75*
G02*
X74040000Y-81992500I0J-237500D01*
G01*
X74040000Y-82467500D01*
G75*
G02*
X73802500Y-82705000I-237500J0D01*
G01*
X73202500Y-82705000D01*
G75*
G02*
X72965000Y-82467500I0J237500D01*
G01*
G37*
G36*
G01*
X71240000Y-82467500D02*
X71240000Y-81992500D01*
G75*
G02*
X71477500Y-81755000I237500J0D01*
G01*
X72077500Y-81755000D01*
G75*
G02*
X72315000Y-81992500I0J-237500D01*
G01*
X72315000Y-82467500D01*
G75*
G02*
X72077500Y-82705000I-237500J0D01*
G01*
X71477500Y-82705000D01*
G75*
G02*
X71240000Y-82467500I0J237500D01*
G01*
G37*
G36*
G01*
X93289000Y-76437500D02*
X93289000Y-75962500D01*
G75*
G02*
X93526500Y-75725000I237500J0D01*
G01*
X94126500Y-75725000D01*
G75*
G02*
X94364000Y-75962500I0J-237500D01*
G01*
X94364000Y-76437500D01*
G75*
G02*
X94126500Y-76675000I-237500J0D01*
G01*
X93526500Y-76675000D01*
G75*
G02*
X93289000Y-76437500I0J237500D01*
G01*
G37*
G36*
G01*
X91564000Y-76437500D02*
X91564000Y-75962500D01*
G75*
G02*
X91801500Y-75725000I237500J0D01*
G01*
X92401500Y-75725000D01*
G75*
G02*
X92639000Y-75962500I0J-237500D01*
G01*
X92639000Y-76437500D01*
G75*
G02*
X92401500Y-76675000I-237500J0D01*
G01*
X91801500Y-76675000D01*
G75*
G02*
X91564000Y-76437500I0J237500D01*
G01*
G37*
G36*
G01*
X71250000Y-80637500D02*
X71250000Y-80162500D01*
G75*
G02*
X71487500Y-79925000I237500J0D01*
G01*
X72087500Y-79925000D01*
G75*
G02*
X72325000Y-80162500I0J-237500D01*
G01*
X72325000Y-80637500D01*
G75*
G02*
X72087500Y-80875000I-237500J0D01*
G01*
X71487500Y-80875000D01*
G75*
G02*
X71250000Y-80637500I0J237500D01*
G01*
G37*
G36*
G01*
X72975000Y-80637500D02*
X72975000Y-80162500D01*
G75*
G02*
X73212500Y-79925000I237500J0D01*
G01*
X73812500Y-79925000D01*
G75*
G02*
X74050000Y-80162500I0J-237500D01*
G01*
X74050000Y-80637500D01*
G75*
G02*
X73812500Y-80875000I-237500J0D01*
G01*
X73212500Y-80875000D01*
G75*
G02*
X72975000Y-80637500I0J237500D01*
G01*
G37*
G36*
G01*
X71225000Y-79012500D02*
X71225000Y-78537500D01*
G75*
G02*
X71462500Y-78300000I237500J0D01*
G01*
X72062500Y-78300000D01*
G75*
G02*
X72300000Y-78537500I0J-237500D01*
G01*
X72300000Y-79012500D01*
G75*
G02*
X72062500Y-79250000I-237500J0D01*
G01*
X71462500Y-79250000D01*
G75*
G02*
X71225000Y-79012500I0J237500D01*
G01*
G37*
G36*
G01*
X72950000Y-79012500D02*
X72950000Y-78537500D01*
G75*
G02*
X73187500Y-78300000I237500J0D01*
G01*
X73787500Y-78300000D01*
G75*
G02*
X74025000Y-78537500I0J-237500D01*
G01*
X74025000Y-79012500D01*
G75*
G02*
X73787500Y-79250000I-237500J0D01*
G01*
X73187500Y-79250000D01*
G75*
G02*
X72950000Y-79012500I0J237500D01*
G01*
G37*
G36*
G01*
X91103500Y-80501500D02*
X91103500Y-80026500D01*
G75*
G02*
X91341000Y-79789000I237500J0D01*
G01*
X91941000Y-79789000D01*
G75*
G02*
X92178500Y-80026500I0J-237500D01*
G01*
X92178500Y-80501500D01*
G75*
G02*
X91941000Y-80739000I-237500J0D01*
G01*
X91341000Y-80739000D01*
G75*
G02*
X91103500Y-80501500I0J237500D01*
G01*
G37*
G36*
G01*
X89378500Y-80501500D02*
X89378500Y-80026500D01*
G75*
G02*
X89616000Y-79789000I237500J0D01*
G01*
X90216000Y-79789000D01*
G75*
G02*
X90453500Y-80026500I0J-237500D01*
G01*
X90453500Y-80501500D01*
G75*
G02*
X90216000Y-80739000I-237500J0D01*
G01*
X89616000Y-80739000D01*
G75*
G02*
X89378500Y-80501500I0J237500D01*
G01*
G37*
M02*
