M48
; DRILL file {KiCad (5.1.9-0-10_14)} date Friday, March 12, 2021 at 03:29:54 PM
; FORMAT={-:-/ absolute / inch / decimal}
; #@! TF.CreationDate,2021-03-12T15:29:54+00:00
; #@! TF.GenerationSoftware,Kicad,Pcbnew,(5.1.9-0-10_14)
; #@! TF.FileFunction,Plated,1,2,PTH
FMAT,2
INCH
T1C0.0118
T2C0.0157
T3C0.0197
T4C0.0394
%
G90
G05
T1
X2.68Y-2.19
X2.89Y-1.99
X3.0758Y-1.9961
X3.0768Y-2.7868
X3.08Y-2.19
X3.2766Y-3.374
X3.4705Y-3.375
X3.4803Y-2.7864
X4.126Y-2.4134
X4.2502Y-2.3902
X4.2582Y-2.5626
X4.2585Y-2.0292
X4.2586Y-2.6197
X4.2598Y-1.9721
T2
X2.3824Y-3.3125
X2.3824Y-3.349
X2.3824Y-3.3854
X2.3824Y-3.4218
X2.3824Y-3.4582
X2.3824Y-3.531
X2.3824Y-3.5675
X2.4096Y-3.6065
X2.4098Y-3.2687
X2.4295Y-3.6307
X2.4376Y-3.3125
X2.4376Y-3.349
X2.4376Y-3.4218
X2.4376Y-3.4582
X2.4376Y-3.4946
X2.4376Y-3.531
X2.4376Y-3.5675
X2.4404Y-3.2687
X2.452Y-3.6528
X2.4626Y-2.2
X2.4703Y-3.2687
X2.503Y-1.8848
X2.5285Y-1.8553
X2.54Y-1.77
X2.64Y-1.79
X2.6841Y-2.8573
X2.685Y-3.0561
X2.6878Y-3.2543
X2.71Y-1.67
X2.76Y-1.71
X2.77Y-1.81
X2.8553Y-1.8612
X2.88Y-2.66
X2.8831Y-3.5598
X2.885Y-2.9799
X2.9106Y-1.7047
X2.997Y-1.8445
X3.2547Y-3.0638
X3.2606Y-2.9837
X3.3885Y-3.17
X3.437Y-2.1348
X3.4724Y-2.9522
X3.4754Y-2.2697
X3.5015Y-2.1333
X3.8474Y-2.6663
X3.8583Y-4.2323
X3.8622Y-3.252
X3.8622Y-3.4488
X3.8622Y-3.6417
X3.8622Y-4.0354
X3.8622Y-4.4291
X3.8622Y-4.8268
X3.8661Y-2.2677
X3.8661Y-2.4646
X3.8661Y-2.8583
X3.8661Y-3.0551
X3.8661Y-3.8425
X3.8661Y-4.6299
X3.8681Y-2.0705
X4.3051Y-1.6693
X4.33Y-1.81
X4.37Y-1.67
X4.39Y-1.74
X4.6211Y-1.7116
X4.63Y-1.81
X4.6468Y-1.8741
X4.69Y-1.7
X4.852Y-1.8757
X5.0315Y-1.7976
X5.0315Y-1.9827
X5.0622Y-1.9827
X5.065Y-1.7967
X5.2283Y-1.7972
X5.2283Y-1.9823
X5.2591Y-1.9823
X5.2618Y-1.7963
X5.4236Y-1.7993
X5.4236Y-1.9844
X5.437Y-2.8583
X5.437Y-4.2362
X5.437Y-4.8268
X5.4409Y-2.4646
X5.4409Y-2.6614
X5.4409Y-3.0551
X5.4409Y-3.4488
X5.4409Y-3.6457
X5.4409Y-4.4331
X5.4409Y-4.6299
X5.4449Y-2.0709
X5.4449Y-2.2677
X5.4449Y-3.252
X5.4449Y-3.8425
X5.4449Y-4.0394
X5.4544Y-1.9844
X5.4571Y-1.7984
X5.4734Y-2.3632
X5.4734Y-2.3939
X5.4744Y-2.7549
X5.4744Y-2.7835
X5.4764Y-2.56
X5.4764Y-2.5906
X5.4774Y-2.9537
X5.4774Y-2.9833
X5.6585Y-2.3632
X5.6594Y-2.3967
X5.6594Y-2.7549
X5.6604Y-2.7835
X5.6614Y-2.56
X5.6624Y-2.5906
X5.6624Y-2.9537
X5.6634Y-2.9833
X7.0118Y-4.6299
X7.0157Y-1.874
X7.0157Y-2.0709
X7.0157Y-2.4646
X7.0157Y-2.6614
X7.0157Y-2.8583
X7.0157Y-3.0551
X7.0157Y-3.252
X7.0157Y-3.4488
X7.0157Y-3.8425
X7.0157Y-4.0394
X7.0157Y-4.2362
X7.0157Y-4.4331
X7.0157Y-4.8268
X7.0197Y-2.2677
X7.0197Y-3.6457
X7.0463Y-2.9547
X7.0463Y-2.9843
X7.0472Y-2.7569
X7.0472Y-2.7854
X7.0482Y-1.9685
X7.0482Y-1.999
X7.0492Y-2.1673
X7.0492Y-2.1949
X7.0492Y-3.5423
X7.0492Y-3.5738
X7.0502Y-3.3474
X7.0502Y-3.377
X7.0541Y-2.5591
X7.0541Y-2.5906
X7.0541Y-3.1496
X7.0541Y-3.1811
X7.0551Y-2.3612
X7.0551Y-2.3927
X7.2313Y-2.9547
X7.2323Y-2.7569
X7.2323Y-2.9843
X7.2333Y-1.9685
X7.2333Y-2.7854
X7.2343Y-1.999
X7.2343Y-2.1673
X7.2343Y-3.5423
X7.2352Y-2.1949
X7.2352Y-3.3474
X7.2352Y-3.5738
X7.2362Y-3.377
X7.2392Y-2.5591
X7.2392Y-3.1496
X7.2402Y-2.3612
X7.2402Y-2.5906
X7.2402Y-3.1811
X7.2411Y-2.3927
T4
X2.43Y-1.95
X2.43Y-2.05
X2.43Y-2.15
X2.43Y-2.25
X2.43Y-2.35
X2.43Y-2.45
X2.43Y-2.55
X2.43Y-2.65
T3
G00X2.3342Y-3.3416
M15
G01X2.3342Y-3.3809
M16
G05
G00X2.3342Y-3.4991
M15
G01X2.3342Y-3.5384
M16
G05
G00X2.4858Y-3.3416
M15
G01X2.4858Y-3.3809
M16
G05
G00X2.4858Y-3.4991
M15
G01X2.4858Y-3.5384
M16
G05
T0
M30
